<svg width="1495" height="296" viewBox="0 0 1495 296" fill="none" xmlns="http://www.w3.org/2000/svg">
<g clip-path="url(#clip0_818_1673)">
<path d="M8.40625 69.6905V51.6547L51.3638 0V69.6905H59.7935V186.875H72.8426V166.138H81.2723V142.715H93.5475V90.413C93.5506 87.5455 94.5213 84.7966 96.2466 82.769C97.972 80.7414 100.311 79.6007 102.751 79.5971C105.192 79.5971 107.533 80.7366 109.259 82.765C110.985 84.7934 111.955 87.5444 111.955 90.413V142.702H124.23V166.125H132.671V203.987H141.875V152.622H272.33V219.322H285.309V197.691H311.384V51.6409L345.138 85.5631V181.446H366.862V69.6905H375.292V51.6547H418.203V69.6905H426.644V186.875H439.728V166.138H448.17V142.715H460.41V90.413C460.41 87.5444 461.38 84.7934 463.106 82.765C464.832 80.7366 467.173 79.5971 469.613 79.5971C472.054 79.5971 474.395 80.7366 476.121 82.765C477.847 84.7934 478.817 87.5444 478.817 90.413V142.702H491.116V166.125H499.557V203.987H508.761V152.622H639.216V219.322H652.195V197.691H678.269V81.8429L712.023 51.6547V181.46H749.611V69.6905H758.041V51.6547L800.999 16.0655V69.6905H809.44V186.875H822.477V166.138H830.895V142.715H843.182V90.413C843.182 87.5444 844.152 84.7934 845.878 82.765C847.604 80.7366 849.945 79.5971 852.386 79.5971C854.827 79.5971 857.168 80.7366 858.894 82.765C860.62 84.7934 861.589 87.5444 861.589 90.413V142.702H873.865V166.125H882.306V203.987H891.509V152.622H1022V432.059H916.083V483.438H882.306V445.575H843.182V466.312H809.44V443.77H749.646V460.897H705.094V331.092H685.925V477.141H672.114V498.773H638.384V432.059H533.299V483.438H499.557V445.575H460.41V466.312H426.668V443.77H382.69V460.897H338.209V331.092H319.028V477.141H305.228V498.773H271.474V432.059H166.39V483.438H132.648V445.575H93.5241V466.312H59.7935V443.77H-1.19206e-07V69.6905H8.40625Z" fill="#E7F7FF"/>
<path d="M1030.41 69.6905V51.6547L1073.36 0V69.6905H1081.79V186.875H1094.84V166.138H1103.27V142.715H1115.55V90.413C1115.55 87.5455 1116.52 84.7966 1118.25 82.769C1119.97 80.7414 1122.31 79.6007 1124.75 79.5971C1127.19 79.5971 1129.53 80.7366 1131.26 82.765C1132.98 84.7934 1133.95 87.5444 1133.95 90.413V142.702H1146.23V166.125H1154.67V203.987H1163.87V152.622H1294.33V219.322H1307.31V197.691H1333.38V51.6409L1367.14 85.5631V181.446H1388.86V69.6905H1397.29V51.6547H1440.2V69.6905H1448.64V186.875H1461.73V166.138H1470.17V142.715H1482.41V90.413C1482.41 87.5444 1483.38 84.7934 1485.11 82.765C1486.83 80.7366 1489.17 79.5971 1491.61 79.5971C1494.05 79.5971 1496.4 80.7366 1498.12 82.765C1499.85 84.7934 1500.82 87.5444 1500.82 90.413V142.702H1513.12V166.125H1521.56V203.987H1530.76V152.622H1661.22V219.322H1674.19V197.691H1700.27V81.8429L1734.02 51.6547V181.46H1771.61V69.6905H1780.04V51.6547L1823 16.0655V69.6905H1831.44V186.875H1844.48V166.138H1852.9V142.715H1865.18V90.413C1865.18 87.5444 1866.15 84.7934 1867.88 82.765C1869.6 80.7366 1871.94 79.5971 1874.39 79.5971C1876.83 79.5971 1879.17 80.7366 1880.89 82.765C1882.62 84.7934 1883.59 87.5444 1883.59 90.413V142.702H1895.86V166.125H1904.31V203.987H1913.51V152.622H2044V432.059H1938.08V483.438H1904.31V445.575H1865.18V466.312H1831.44V443.77H1771.65V460.897H1727.09V331.092H1707.93V477.141H1694.11V498.773H1660.38V432.059H1555.3V483.438H1521.56V445.575H1482.41V466.312H1448.67V443.77H1404.69V460.897H1360.21V331.092H1341.03V477.141H1327.23V498.773H1293.47V432.059H1188.39V483.438H1154.65V445.575H1115.52V466.312H1081.79V443.77H1022V69.6905H1030.41Z" fill="#E7F7FF"/>
</g>
<defs>
<clipPath id="clip0_818_1673">
<rect width="1495" height="296" fill="white"/>
</clipPath>
</defs>
</svg>
