<svg width="116" height="22" viewBox="0 0 84 16" fill="none" xmlns="http://www.w3.org/2000/svg">
<rect x="3" width="16" height="16" rx="8" fill="url(#paint0_linear_652_1965)"/>
<path d="M10.3837 3.75723C10.3837 3.75723 10.3837 5.77976 10.3837 7.48316M10.3837 10.2061C10.3837 10.2061 10.3837 9.01035 10.3837 7.48316M8.29151 4.65616C7.76224 3.75723 8.98924 2.43335 10.9378 2.70196C12.072 2.85829 12.8659 3.75723 12.9793 4.38258C13.0927 5.00792 13.2817 6.5322 10.3837 7.48316M10.3837 7.48316C8.67809 7.81634 6.69316 10.2061 8.54153 12.1603C9.82477 13.5171 12.4354 12.5903 12.2464 10.5579M10.3837 7.48316L15.8 12.5512" stroke="white" stroke-width="0.5" stroke-linecap="round"/>
<path d="M23.852 12.5V4.1H26.744C27.408 4.1 27.952 4.212 28.376 4.436C28.808 4.66 29.128 4.964 29.336 5.348C29.544 5.724 29.648 6.144 29.648 6.608C29.648 7.128 29.508 7.6 29.228 8.024C28.956 8.448 28.528 8.752 27.944 8.936L29.732 12.5H28.256L26.624 9.116H25.124V12.5H23.852ZM25.124 8.156H26.672C27.248 8.156 27.668 8.016 27.932 7.736C28.204 7.456 28.34 7.092 28.34 6.644C28.34 6.196 28.208 5.84 27.944 5.576C27.68 5.304 27.252 5.168 26.66 5.168H25.124V8.156ZM34.8968 12.644C34.2968 12.644 33.7528 12.528 33.2648 12.296C32.7848 12.056 32.4008 11.692 32.1128 11.204C31.8328 10.716 31.6928 10.096 31.6928 9.344V4.1H32.9648V9.356C32.9648 10.092 33.1408 10.632 33.4928 10.976C33.8448 11.32 34.3208 11.492 34.9208 11.492C35.5128 11.492 35.9848 11.32 36.3368 10.976C36.6888 10.632 36.8648 10.092 36.8648 9.356V4.1H38.1368V9.344C38.1368 10.096 37.9888 10.716 37.6928 11.204C37.4048 11.692 37.0128 12.056 36.5168 12.296C36.0288 12.528 35.4888 12.644 34.8968 12.644ZM40.3684 12.5V4.1H43.5364C44.4084 4.1 45.0684 4.304 45.5164 4.712C45.9644 5.12 46.1884 5.632 46.1884 6.248C46.1884 6.784 46.0444 7.212 45.7564 7.532C45.4684 7.844 45.1204 8.056 44.7124 8.168C45.0324 8.232 45.3164 8.36 45.5644 8.552C45.8204 8.744 46.0204 8.984 46.1644 9.272C46.3084 9.56 46.3804 9.872 46.3804 10.208C46.3804 10.64 46.2724 11.032 46.0564 11.384C45.8484 11.728 45.5404 12 45.1324 12.2C44.7244 12.4 44.2244 12.5 43.6324 12.5H40.3684ZM41.6404 7.7H43.3804C43.8684 7.7 44.2404 7.588 44.4964 7.364C44.7524 7.132 44.8804 6.816 44.8804 6.416C44.8804 6.024 44.7524 5.712 44.4964 5.48C44.2484 5.248 43.8684 5.132 43.3564 5.132H41.6404V7.7ZM41.6404 11.456H43.4644C43.9764 11.456 44.3724 11.336 44.6524 11.096C44.9404 10.856 45.0844 10.52 45.0844 10.088C45.0844 9.656 44.9364 9.316 44.6404 9.068C44.3444 8.812 43.9444 8.684 43.4404 8.684H41.6404V11.456ZM48.3747 12.5V4.1H49.6467V12.5H48.3747Z" fill="#33C042"/>
<path d="M54.624 12.644C54.008 12.644 53.468 12.536 53.004 12.32C52.54 12.104 52.176 11.796 51.912 11.396C51.656 10.996 51.524 10.52 51.516 9.968H52.86C52.868 10.416 53.024 10.796 53.328 11.108C53.632 11.42 54.06 11.576 54.612 11.576C55.1 11.576 55.48 11.46 55.752 11.228C56.032 10.988 56.172 10.684 56.172 10.316C56.172 10.02 56.104 9.78 55.968 9.596C55.84 9.412 55.66 9.26 55.428 9.14C55.204 9.02 54.944 8.912 54.648 8.816C54.352 8.72 54.04 8.616 53.712 8.504C53.064 8.288 52.576 8.008 52.248 7.664C51.928 7.32 51.768 6.868 51.768 6.308C51.76 5.836 51.868 5.424 52.092 5.072C52.324 4.72 52.644 4.448 53.052 4.256C53.468 4.056 53.952 3.956 54.504 3.956C55.048 3.956 55.524 4.056 55.932 4.256C56.348 4.456 56.672 4.736 56.904 5.096C57.136 5.448 57.256 5.86 57.264 6.332H55.92C55.92 6.116 55.864 5.912 55.752 5.72C55.64 5.52 55.476 5.356 55.26 5.228C55.044 5.1 54.78 5.036 54.468 5.036C54.068 5.028 53.736 5.128 53.472 5.336C53.216 5.544 53.088 5.832 53.088 6.2C53.088 6.528 53.184 6.78 53.376 6.956C53.568 7.132 53.832 7.28 54.168 7.4C54.504 7.512 54.888 7.644 55.32 7.796C55.736 7.932 56.108 8.096 56.436 8.288C56.764 8.48 57.024 8.732 57.216 9.044C57.416 9.356 57.516 9.752 57.516 10.232C57.516 10.656 57.408 11.052 57.192 11.42C56.976 11.78 56.652 12.076 56.22 12.308C55.788 12.532 55.256 12.644 54.624 12.644ZM63.3827 12.644C62.5507 12.644 61.8227 12.46 61.1987 12.092C60.5747 11.724 60.0867 11.216 59.7347 10.568C59.3827 9.912 59.2067 9.156 59.2067 8.3C59.2067 7.444 59.3827 6.692 59.7347 6.044C60.0867 5.388 60.5747 4.876 61.1987 4.508C61.8227 4.14 62.5507 3.956 63.3827 3.956C64.2147 3.956 64.9427 4.14 65.5667 4.508C66.1907 4.876 66.6747 5.388 67.0187 6.044C67.3707 6.692 67.5467 7.444 67.5467 8.3C67.5467 9.156 67.3707 9.912 67.0187 10.568C66.6747 11.216 66.1907 11.724 65.5667 12.092C64.9427 12.46 64.2147 12.644 63.3827 12.644ZM63.3827 11.504C63.9587 11.504 64.4587 11.376 64.8827 11.12C65.3147 10.864 65.6507 10.496 65.8907 10.016C66.1307 9.536 66.2507 8.964 66.2507 8.3C66.2507 7.636 66.1307 7.064 65.8907 6.584C65.6507 6.104 65.3147 5.736 64.8827 5.48C64.4587 5.224 63.9587 5.096 63.3827 5.096C62.8067 5.096 62.3027 5.224 61.8707 5.48C61.4387 5.736 61.1027 6.104 60.8627 6.584C60.6307 7.064 60.5147 7.636 60.5147 8.3C60.5147 8.964 60.6307 9.536 60.8627 10.016C61.1027 10.496 61.4387 10.864 61.8707 11.12C62.3027 11.376 62.8067 11.504 63.3827 11.504ZM69.5637 12.5V4.1H70.8357V11.492H74.6517V12.5H69.5637ZM76.6207 12.5V4.1H79.3447C80.3287 4.1 81.1367 4.272 81.7687 4.616C82.4087 4.96 82.8807 5.448 83.1847 6.08C83.4967 6.704 83.6527 7.448 83.6527 8.312C83.6527 9.168 83.4967 9.912 83.1847 10.544C82.8807 11.168 82.4087 11.652 81.7687 11.996C81.1367 12.332 80.3287 12.5 79.3447 12.5H76.6207ZM77.8927 11.42H79.2967C80.0567 11.42 80.6567 11.296 81.0967 11.048C81.5447 10.8 81.8647 10.444 82.0567 9.98C82.2567 9.516 82.3567 8.96 82.3567 8.312C82.3567 7.664 82.2567 7.104 82.0567 6.632C81.8647 6.16 81.5447 5.8 81.0967 5.552C80.6567 5.296 80.0567 5.168 79.2967 5.168H77.8927V11.42Z" fill="black"/>
<defs>
<linearGradient id="paint0_linear_652_1965" x1="-0.2" y1="2.6" x2="23" y2="19.4" gradientUnits="userSpaceOnUse">
<stop stop-color="#33C042"/>
<stop offset="1" stop-color="#23C434" stop-opacity="0.45"/>
</linearGradient>
</defs>
</svg>
