<svg width="25" height="29" viewBox="0 0 25 29" fill="none" xmlns="http://www.w3.org/2000/svg">
<path d="M20.8298 27.8365C19.2144 29.3668 17.4508 29.1252 15.753 28.4003C13.9563 27.6593 12.308 27.6271 10.4125 28.4003C8.03892 29.3991 6.78621 29.1091 5.36866 27.8365C-2.67507 19.7336 -1.48829 7.39407 7.64333 6.94301C9.86854 7.05578 11.418 8.13508 12.7201 8.23174C14.6651 7.84512 16.5277 6.73359 18.6046 6.87858C21.0935 7.07189 22.9726 8.03843 24.2088 9.77821C19.0661 12.7906 20.2858 19.4114 25 21.264C24.0605 23.6803 22.8407 26.0806 20.8133 27.8526L20.8298 27.8365ZM12.5553 6.84636C12.308 3.25403 15.2915 0.289963 18.72 0C19.198 4.15614 14.8629 7.24908 12.5553 6.84636Z" fill="white"/>
</svg>
