<svg width="126" height="31" viewBox="0 0 126 31" fill="none" xmlns="http://www.w3.org/2000/svg">
<rect y="0.863281" width="30" height="30" rx="15" fill="url(#paint0_linear_678_2340)"/>
<path d="M13.8444 7.90811C13.8444 7.90811 13.8444 11.7003 13.8444 14.8942M13.8444 19.9998C13.8444 19.9998 13.8444 17.7577 13.8444 14.8942M9.92149 9.59361C8.92912 7.90811 11.2297 5.42583 14.8834 5.92947C17.0099 6.2226 18.4985 7.9081 18.7111 9.08063C18.9238 10.2532 19.2782 13.1112 13.8444 14.8942M13.8444 14.8942C10.6463 15.5189 6.92459 19.9998 10.3903 23.6639C12.7964 26.2078 17.6913 24.47 17.3369 20.6593M13.8444 14.8942L24 24.3967" stroke="white" stroke-linecap="round"/>
<path d="M41.136 20.8633V9.66328H44.992C45.8773 9.66328 46.6027 9.81261 47.168 10.1113C47.744 10.4099 48.1707 10.8153 48.448 11.3273C48.7253 11.8286 48.864 12.3886 48.864 13.0073C48.864 13.7006 48.6773 14.3299 48.304 14.8953C47.9413 15.4606 47.3707 15.8659 46.592 16.1113L48.976 20.8633H47.008L44.832 16.3513H42.832V20.8633H41.136ZM42.832 15.0713H44.896C45.664 15.0713 46.224 14.8846 46.576 14.5113C46.9387 14.1379 47.12 13.6526 47.12 13.0553C47.12 12.4579 46.944 11.9833 46.592 11.6313C46.24 11.2686 45.6693 11.0873 44.88 11.0873H42.832V15.0713ZM55.8624 21.0553C55.0624 21.0553 54.337 20.9006 53.6864 20.5913C53.0464 20.2713 52.5344 19.7859 52.1504 19.1353C51.777 18.4846 51.5904 17.6579 51.5904 16.6553V9.66328H53.2864V16.6713C53.2864 17.6526 53.521 18.3726 53.9904 18.8313C54.4597 19.2899 55.0944 19.5193 55.8944 19.5193C56.6837 19.5193 57.313 19.2899 57.7824 18.8313C58.2517 18.3726 58.4864 17.6526 58.4864 16.6713V9.66328H60.1824V16.6553C60.1824 17.6579 59.985 18.4846 59.5904 19.1353C59.2064 19.7859 58.6837 20.2713 58.0224 20.5913C57.3717 20.9006 56.6517 21.0553 55.8624 21.0553ZM63.1579 20.8633V9.66328H67.3819C68.5445 9.66328 69.4245 9.93528 70.0219 10.4793C70.6192 11.0233 70.9179 11.7059 70.9179 12.5273C70.9179 13.2419 70.7259 13.8126 70.3419 14.2393C69.9579 14.6553 69.4939 14.9379 68.9499 15.0873C69.3765 15.1726 69.7552 15.3433 70.0859 15.5993C70.4272 15.8553 70.6939 16.1753 70.8859 16.5593C71.0779 16.9433 71.1739 17.3593 71.1739 17.8073C71.1739 18.3833 71.0299 18.9059 70.7419 19.3753C70.4645 19.8339 70.0539 20.1966 69.5099 20.4633C68.9659 20.7299 68.2992 20.8633 67.5099 20.8633H63.1579ZM64.8539 14.4633H67.1739C67.8245 14.4633 68.3205 14.3139 68.6619 14.0153C69.0032 13.7059 69.1739 13.2846 69.1739 12.7513C69.1739 12.2286 69.0032 11.8126 68.6619 11.5033C68.3312 11.1939 67.8245 11.0393 67.1419 11.0393H64.8539V14.4633ZM64.8539 19.4713H67.2859C67.9685 19.4713 68.4965 19.3113 68.8699 18.9913C69.2539 18.6713 69.4459 18.2233 69.4459 17.6473C69.4459 17.0713 69.2485 16.6179 68.8539 16.2873C68.4592 15.9459 67.9259 15.7753 67.2539 15.7753H64.8539V19.4713ZM73.8329 20.8633V9.66328H75.5289V20.8633H73.8329Z" fill="#33C042"/>
<path d="M81.832 21.0553C81.0107 21.0553 80.2907 20.9113 79.672 20.6233C79.0533 20.3353 78.568 19.9246 78.216 19.3913C77.8747 18.8579 77.6987 18.2233 77.688 17.4873H79.48C79.4907 18.0846 79.6987 18.5913 80.104 19.0073C80.5093 19.4233 81.08 19.6313 81.816 19.6313C82.4667 19.6313 82.9733 19.4766 83.336 19.1673C83.7093 18.8473 83.896 18.4419 83.896 17.9513C83.896 17.5566 83.8053 17.2366 83.624 16.9913C83.4533 16.7459 83.2133 16.5433 82.904 16.3833C82.6053 16.2233 82.2587 16.0793 81.864 15.9513C81.4693 15.8233 81.0533 15.6846 80.616 15.5353C79.752 15.2473 79.1013 14.8739 78.664 14.4153C78.2373 13.9566 78.024 13.3539 78.024 12.6073C78.0133 11.9779 78.1573 11.4286 78.456 10.9593C78.7653 10.4899 79.192 10.1273 79.736 9.87128C80.2907 9.60461 80.936 9.47128 81.672 9.47128C82.3973 9.47128 83.032 9.60461 83.576 9.87128C84.1307 10.1379 84.5627 10.5113 84.872 10.9913C85.1813 11.4606 85.3413 12.0099 85.352 12.6393H83.56C83.56 12.3513 83.4853 12.0793 83.336 11.8233C83.1867 11.5566 82.968 11.3379 82.68 11.1673C82.392 10.9966 82.04 10.9113 81.624 10.9113C81.0907 10.9006 80.648 11.0339 80.296 11.3113C79.9547 11.5886 79.784 11.9726 79.784 12.4633C79.784 12.9006 79.912 13.2366 80.168 13.4713C80.424 13.7059 80.776 13.9033 81.224 14.0633C81.672 14.2126 82.184 14.3886 82.76 14.5913C83.3147 14.7726 83.8107 14.9913 84.248 15.2473C84.6853 15.5033 85.032 15.8393 85.288 16.2553C85.5547 16.6713 85.688 17.1993 85.688 17.8393C85.688 18.4046 85.544 18.9326 85.256 19.4233C84.968 19.9033 84.536 20.2979 83.96 20.6073C83.384 20.9059 82.6747 21.0553 81.832 21.0553ZM93.5103 21.0553C92.4009 21.0553 91.4303 20.8099 90.5983 20.3193C89.7663 19.8286 89.1156 19.1513 88.6463 18.2873C88.1769 17.4126 87.9423 16.4046 87.9423 15.2633C87.9423 14.1219 88.1769 13.1193 88.6463 12.2553C89.1156 11.3806 89.7663 10.6979 90.5983 10.2073C91.4303 9.71661 92.4009 9.47128 93.5103 9.47128C94.6196 9.47128 95.5903 9.71661 96.4223 10.2073C97.2543 10.6979 97.8996 11.3806 98.3583 12.2553C98.8276 13.1193 99.0623 14.1219 99.0623 15.2633C99.0623 16.4046 98.8276 17.4126 98.3583 18.2873C97.8996 19.1513 97.2543 19.8286 96.4223 20.3193C95.5903 20.8099 94.6196 21.0553 93.5103 21.0553ZM93.5103 19.5353C94.2783 19.5353 94.9449 19.3646 95.5103 19.0233C96.0863 18.6819 96.5343 18.1913 96.8543 17.5513C97.1743 16.9113 97.3343 16.1486 97.3343 15.2633C97.3343 14.3779 97.1743 13.6153 96.8543 12.9753C96.5343 12.3353 96.0863 11.8446 95.5103 11.5033C94.9449 11.1619 94.2783 10.9913 93.5103 10.9913C92.7423 10.9913 92.0703 11.1619 91.4943 11.5033C90.9183 11.8446 90.4703 12.3353 90.1503 12.9753C89.8409 13.6153 89.6863 14.3779 89.6863 15.2633C89.6863 16.1486 89.8409 16.9113 90.1503 17.5513C90.4703 18.1913 90.9183 18.6819 91.4943 19.0233C92.0703 19.3646 92.7423 19.5353 93.5103 19.5353ZM101.752 20.8633V9.66328H103.448V19.5193H108.536V20.8633H101.752ZM111.161 20.8633V9.66328H114.793C116.105 9.66328 117.182 9.89261 118.025 10.3513C118.878 10.8099 119.508 11.4606 119.913 12.3033C120.329 13.1353 120.537 14.1273 120.537 15.2793C120.537 16.4206 120.329 17.4126 119.913 18.2553C119.508 19.0873 118.878 19.7326 118.025 20.1913C117.182 20.6393 116.105 20.8633 114.793 20.8633H111.161ZM112.857 19.4233H114.729C115.742 19.4233 116.542 19.2579 117.129 18.9273C117.726 18.5966 118.153 18.1219 118.409 17.5033C118.676 16.8846 118.809 16.1433 118.809 15.2793C118.809 14.4153 118.676 13.6686 118.409 13.0393C118.153 12.4099 117.726 11.9299 117.129 11.5993C116.542 11.2579 115.742 11.0873 114.729 11.0873H112.857V19.4233Z" fill="black"/>
<defs>
<linearGradient id="paint0_linear_678_2340" x1="-6" y1="5.73828" x2="37.5" y2="37.2383" gradientUnits="userSpaceOnUse">
<stop stop-color="#33C042"/>
<stop offset="1" stop-color="#23C434" stop-opacity="0.45"/>
</linearGradient>
</defs>
</svg>
