<svg width="86" height="72" viewBox="0 0 86 72" fill="none" xmlns="http://www.w3.org/2000/svg">
<g opacity="0.3" clip-path="url(#clip0_120_1016)">
<path fill-rule="evenodd" clip-rule="evenodd" d="M85.6228 11.2451C72.7985 17.4924 66.3864 24.8329 66.3864 33.2668C71.8525 33.8915 76.3725 36.1041 79.9465 39.9046C83.5205 43.705 85.3075 48.1041 85.3075 53.102C85.3075 58.4122 83.5731 62.8894 80.1042 66.5336C76.6353 70.1779 72.273 72 67.0171 72C61.1305 72 56.0323 69.6313 51.7225 64.8937C47.4127 60.1562 45.2578 54.4035 45.2578 47.6356C45.2578 27.3318 56.7155 11.4534 79.6312 0L85.6228 11.2451ZM40.3651 11.2451C27.4356 17.4924 20.9709 24.8329 20.9709 33.2668C26.5422 33.8915 31.1147 36.1041 34.6887 39.9046C38.2627 43.705 40.0497 48.1041 40.0497 53.102C40.0497 58.4122 38.289 62.8894 34.7676 66.5336C31.2461 70.1779 26.8575 72 21.6016 72C15.715 72 10.6432 69.6313 6.38588 64.8937C2.12861 60.1562 0 54.4035 0 47.6356C0 27.3318 11.4051 11.4534 34.2157 0L40.3651 11.2451Z" fill="#030404"/>
</g>
<defs>
<clipPath id="clip0_120_1016">
<rect width="86" height="72" fill="white"/>
</clipPath>
</defs>
</svg>
