<svg width="1440" height="454" viewBox="0 0 1440 454" fill="none" xmlns="http://www.w3.org/2000/svg">
<path d="M1377.08 373.684C1380.94 373.684 1384.08 369.206 1384.08 363.684C1384.08 358.161 1380.94 353.684 1377.08 353.684C1373.21 353.684 1370.08 358.161 1370.08 363.684C1370.08 369.206 1373.21 373.684 1377.08 373.684Z" fill="#374B5C"/>
<path d="M1193.58 245.684C1198.82 245.684 1203.08 241.43 1203.08 236.184C1203.08 230.937 1198.82 226.684 1193.58 226.684C1188.33 226.684 1184.08 230.937 1184.08 236.184C1184.08 241.43 1188.33 245.684 1193.58 245.684Z" fill="#374B5C"/>
<path d="M381.413 41.3248C389.701 50.7067 400.612 50.8545 412.004 50.7865C421.019 50.7297 430.929 46.6227 438.822 54.759C393.514 81.259 344.184 85.4168 293.236 81.3825C255.638 78.4038 218.038 74.741 180.214 76.4162C105.845 71.505 31.3371 71.3048 -43.1018 68.8476C-50.7493 68.5974 -58.6197 69.1782 -65.713 65.1918C-68.8963 63.2315 -69.7679 60.5281 -68.3276 57.0815L381.413 41.3248Z" fill="#E7F7FF"/>
<path d="M668.038 93.2481C671.449 93.2426 674.859 93.2426 678.266 93.2479C688.137 99.1165 699.658 91.2571 709.539 96.9963L709.492 96.968C733.759 107.031 754.222 86.7569 777.693 88.2041C783.952 88.594 790.587 84.9517 796.981 88.9757C820.064 102.11 845.149 104.37 870.774 101.332C879.261 100.318 887.457 99.0568 895.881 100.802C910.577 105.703 925.217 108.593 940.91 104.564C949.336 102.402 958.037 104.086 964.009 111.934C955.03 135.854 933.714 142.66 912.143 145.199C898.915 146.762 887.963 150.875 875.928 155.622C850.642 165.594 823.321 166.636 796.099 168.321C796.168 169.438 800.228 167.499 800.619 169.054C805.877 189.792 825.565 193.71 840.025 204.064C851.105 212.001 863.944 222.67 842.472 234.565C840.97 235.395 839.002 237.032 839.205 238.373C845.392 278.454 808.651 271.942 790.713 284.261C799.106 281.005 806.51 280.585 814.114 290.898C828.363 310.231 837.685 309.144 850.697 289.471C853.084 285.869 854.26 281.601 856.477 277.943C866.14 261.984 879.741 256.306 895.13 268.394C910.197 280.22 922.835 276.594 933.988 265.16C948.876 249.886 962.664 240.85 982.114 258.622C990.887 266.647 1000.08 260.278 1007.49 253.932C1021.85 241.647 1034.94 243.375 1053.83 247.48C1081.92 253.597 1100.48 265.137 1112.83 289.846C1115.72 295.632 1121.32 296.091 1128.34 295.266C1156.24 291.973 1172.82 302.68 1184.96 331.98C1193.28 352.031 1189.6 369.068 1168.56 379.744C1164.82 381.642 1160.43 384.652 1163.95 389.746C1167.11 394.311 1172.75 397.251 1177.15 392.908C1184.01 386.133 1194.37 380.842 1190.04 367.483C1186.16 355.524 1194.58 349.936 1204.23 346.981C1215.64 343.481 1219.8 351.843 1222.19 360.495C1227.37 379.318 1244.06 397.038 1227.04 418.307C1223.77 422.398 1226.24 433.758 1231.76 433.382C1252.03 432.001 1249.15 448.682 1254.26 459.074C1256.92 464.487 1258.17 471.816 1262.68 474.865C1288.74 492.456 1284.59 521.63 1291.5 546.572C1290.27 548.845 1288.41 550.716 1286.14 551.96C1245.63 557.043 1205 560.973 1164.2 563.026C1157.46 563.369 1149.75 561.293 1144.61 566.591C1130.53 581.088 1120.6 571.895 1110.55 561.615C1101.58 553.963 1099.23 542.446 1094.29 532.558C1084.21 512.348 1088.29 506.599 1112.33 504.927C1106.77 499.371 1100.84 498.475 1093.75 502.052C1069.33 514.37 1069.29 514.273 1058.95 489.044C1058.89 497.454 1065.54 505.051 1062.81 513.874C1060.58 521.112 1060.89 530.302 1051.35 532.242C1042.54 534.036 1037.04 527.701 1032.25 521.442C1027.47 515.23 1025.11 507.49 1025.63 499.669C1025.98 492.163 1028.07 483.993 1019.54 478.283C1011.79 482.013 1015.95 488.63 1016.3 493.8C1017.05 504.687 1012.97 514.739 1002.77 515.607C990.684 516.631 992.907 504.406 992.12 496.316C991.795 492.907 992.214 489.42 990.233 486.351C990.63 482.918 984.811 485.757 988.211 485.181C989.211 485.017 989.543 485.804 989.223 487.552C984.465 513.249 976.345 514.509 950.948 493.516C949.111 491.973 947.386 490.328 945.66 488.682C939.738 483.132 932.007 480.951 924.628 479.328C910.536 476.221 901.152 469.686 901.49 453.253C899.918 469.675 885.08 465.298 876.745 470.609C881.137 472.74 885.211 474.213 888.551 476.974C895.076 482.359 910.124 483.385 902.927 496.44C897.249 506.741 887.044 516.121 873.183 511.138C857.464 505.487 832.53 507.033 843.946 476.587C847.032 468.383 837.247 464.319 830.294 466.494C812.937 471.946 807.512 460.979 801.393 448.725C795.135 436.18 787.538 424.397 770.608 427.199C776.071 431.15 789.195 427.309 788.117 438.276C787.09 448.731 776.233 449.295 767.686 448.938C756.665 448.52 745.958 445.153 736.681 439.187C740.371 449.728 746.502 463.87 733.469 466.192C718.195 468.912 699.591 483.532 686.579 465.839C689.664 473.226 696.002 477.855 708.51 473.761C725.874 468.072 727.145 478.934 725.851 491.557C738.283 476.194 755.773 467.577 776.041 465.869C786.482 464.985 797.151 467.559 799.806 480.749C802.497 494.075 794.76 498.017 783.532 502.073C774.747 505.253 757.069 503.3 758.91 514.717C761.019 527.747 778.865 528.021 789.823 526.315C809.859 523.213 827.073 530.196 845.032 535.646C853.239 538.138 861.102 542.15 870.05 541.271C926.421 535.739 981.753 544.22 1036.94 553.901C1060.55 558.04 1085.1 547.377 1108.12 558.863C1111.55 571.088 1116.29 578.622 1132.36 577.336C1149.89 575.93 1167.55 582.652 1185.61 582.249C1191.6 582.115 1197.85 584.097 1199.68 591.04C1201.45 597.695 1196.72 601.913 1192.95 606.66C1181.26 621.358 1160.14 613.27 1147.69 625.794C1156.35 624.02 1164.81 616.976 1173.85 624.786C1164.98 639.065 1150.69 640.731 1135.8 641.268C1070.86 643.581 1005.91 645.935 940.976 648.329C940.305 634.4 951.741 637.115 959.098 636.247C975.375 634.504 991.75 633.839 1008.11 634.256C1020.27 634.447 1029.33 628.105 1039.04 622.837C1043.59 620.37 1043.31 615.741 1042 611.424C1040.48 606.428 1036.3 604.106 1032.04 606.334C1017.01 614.203 1012.13 604.404 1007.73 593.241C1005.08 586.517 1002.3 585.914 993.661 585.691C973.933 585.194 953.005 590.878 934.107 581.014C925.223 576.375 919.35 579.147 914.287 586.301C908.932 594.111 901.6 600.36 893.041 604.411C878.179 611.489 864.165 623 859.597 594.151C857.895 583.408 847.577 582.241 836.595 584.324C817.695 587.919 798.263 595.438 779.56 582.69C775.744 580.089 770.588 580.285 767.584 583.68C756.485 596.225 751.104 596.725 738.874 581.365C731.138 571.651 708.865 576.773 693.243 578.227C686.433 578.866 678.054 578.835 678.243 573.345C679.313 542.584 648.533 541.622 634.326 525.448C626.352 516.359 611.906 513.13 607.791 499.142C606.486 494.733 602.536 492.396 597.726 492.724C592.855 493.047 587.954 496.837 588.95 500.495C596.713 528.815 573.54 546.306 565.918 569.14C561.152 586.611 543.669 589.09 531.449 597.468C525.179 601.763 518.344 597.089 514.425 590.433C509.898 582.762 509.824 574.334 517.578 569.995C533.018 561.358 539.268 546.943 545.377 531.984C517.566 524.456 517.804 524.504 522.843 495.942C525.117 483.029 519.041 473.737 506.568 470.762C493.419 467.628 479.991 464.329 466.597 472.026C459.348 476.195 451.018 479.738 442.187 475.059C434.683 464.987 431.915 453.088 431.652 441.088C431.313 426.202 435.279 413.093 454.302 413.478C467.35 413.744 475.766 407.225 479.576 395.449C483.711 382.615 495.087 375.126 501.062 363.508C512.007 342.234 525.68 323.887 555.215 337.483C536.226 321.782 525.982 321.539 517.3 337.654C510.971 349.384 504.67 358.652 490.152 355.589C481.996 353.865 468.642 323.135 469.759 313.28C470.925 303.087 490.639 293.637 472.554 282.854C453.006 271.193 433.972 254.853 408.259 266.996C403.584 269.201 398.867 271.308 394.166 273.446C378.769 280.459 370.309 274.647 370.673 258.518C370.942 246.841 369.423 234.267 377.665 222.873C386.953 222.114 391.017 232.467 399.49 233.86C407.977 235.246 415.532 236.764 415.626 224.635C415.711 213.376 422.152 205.693 432.014 204.381C445.902 202.531 455.4 200.607 456.784 182.919C457.544 173.22 467.631 178.48 473.139 182.376C486.04 191.482 483.835 204.406 481.72 217.521C478.91 234.916 466.275 235.991 452.592 235.876C470.29 259.102 472.841 259.302 483.051 235.532C487.178 225.928 493.46 225.236 501.619 226.809C513.665 229.121 524.997 233.891 534.247 241.669C548.6 253.74 557.77 271.789 575.74 274.96C574.101 271.21 571.981 262.441 561.991 263.165C551.31 263.939 551.029 257.228 550.833 250.153C550.862 247.591 550.294 245.058 549.174 242.753C548.054 240.449 546.413 238.437 544.381 236.876C536.965 230.734 519.696 221.412 527.38 216.383C539.603 208.399 539.371 183 562.28 190.154C570.219 192.641 569.526 185.453 569.943 180.484C570.526 173.67 568.64 166.767 570.912 158.782C569.872 163.357 571.245 158.283 571.173 158.628C566.491 181.297 560.424 189.438 550.889 160.725C548.734 154.235 550.63 147.048 551.732 140.223C554.272 124.467 544.191 118.05 531.539 115.393C515.334 111.985 520.113 125.996 517.618 133.908C514.869 142.618 514.043 155.366 500.913 151.881C490.504 149.115 484.543 139.386 486.124 127.541C491.839 84.5909 517.982 74.772 559.245 83.7987C593.974 91.395 631.287 95.774 668.038 93.2481Z" fill="#E7F7FF"/>
<path d="M669.037 94.2478C658.096 105.004 644.338 96.6434 632.187 98.0904C624.876 98.9637 616.594 102.137 610.789 101.133C602.56 99.7205 593.76 94.4275 585.94 88.8272C579.374 84.1291 574.641 88.6899 566.126 104.99C553.484 85.6533 541.194 79.8575 523.975 83.8085C516.632 85.4981 511.489 88.0848 508.854 95.6938C506.089 103.712 503.548 112.491 498.356 118.857C487.103 132.663 492.928 141.286 506.056 150.194C511.632 140.464 516.029 131.62 512.005 119.552C508.695 109.653 514.136 104.946 524.51 107.37C535.192 109.868 546.337 110.413 554.608 119.934C560.513 126.741 566.008 130.997 559.506 141.483C553.608 150.992 557.313 162.365 560.045 176.43C570.464 167.314 566.739 155.305 574.928 149.74C579.399 146.704 584.187 142.508 588.001 148.299C592.047 154.433 584.513 153.936 581.518 155.64C574.409 159.682 572.409 165.426 574.938 173.038C576.28 177.092 578.032 181.124 578.612 185.301C579.554 192.206 580.047 199.98 572.579 203.524C564.893 207.175 563.403 197.714 558.522 195.121C557.095 194.355 555.33 194.227 553.325 193.711C544.475 198.712 557.253 207.577 549.611 214.024C543.297 219.355 536.347 214.558 529.803 218.404C538.488 228.902 550.855 233.181 561.287 239.015C562.713 246.886 552.488 251.098 557.119 258.719C571.434 248.843 571.343 248.876 577.005 262.66C581.551 273.728 585.554 284.737 579.735 296.434C571.938 296.585 572.434 291.51 573.382 287.707C575.252 280.216 572.72 274.904 565.458 274.801C552.999 274.628 549.473 266.58 542.996 257.789C531.074 241.626 512.05 234.508 490.789 231.559C487.994 242.229 491.226 253.814 484.92 264.255C460.976 264.494 449.053 248.741 438.749 229.217C451.605 226.817 467.714 240.32 475.663 222.843C483.993 204.531 479.776 195.053 462.38 183.446C453.865 194.985 468.619 205.893 462.911 219.9C452.913 210.189 442.742 203.334 429.537 212.082C422.98 216.432 417.933 220.433 424.094 228.229C430.86 236.794 425.47 238.957 418.553 243.126C409.282 248.721 402.806 237.784 394.582 241.079C382.145 246.069 385.871 231.765 380.295 226.977C376.996 239.552 380.264 250.649 377.073 261.735C374.385 271.091 380.541 273.357 390.798 269.594C404.426 264.593 415.209 252.448 432.778 257.004C454.146 262.557 471.395 274.904 489.55 285.937C490.716 286.589 491.691 287.535 492.376 288.681C493.062 289.828 493.435 291.134 493.458 292.47C493.481 293.805 493.153 295.123 492.507 296.293C491.861 297.462 490.919 298.441 489.776 299.132C468.995 312.701 472.794 326.125 488.669 340.366C489.73 341.311 490.037 343.555 490.003 345.179C489.663 358.946 497.264 352.571 503.149 350.407C511.97 347.174 511.64 338.19 514.916 331.491C521.34 318.334 529.401 314.723 548.724 319.118C559.815 321.639 563.157 332.793 566.977 341.853C568.382 345.204 563.988 350.449 558.706 347.931C547.235 342.468 534.119 335.489 523.536 343.306C514.694 349.838 510.308 362.588 504.573 373.041C497.257 386.382 487.37 398.761 479.605 412.324C475.68 419.187 468.704 422.454 459.926 422.344C440.945 422.102 434.79 429.211 438.738 447.351C440.735 456.528 444.81 465.243 444.16 474.945C459.075 489.343 434.266 506.598 440.709 510.991C456.797 521.966 454.455 534.897 453.147 548.849C452.055 560.532 447.927 570.736 432.995 569.752C412.315 568.39 419.41 580.906 422.281 591.3C423.21 599.136 423.826 606.867 415.577 611.673C408.399 611.589 404.332 606.355 399.674 602.101C392.081 596.007 390.175 569.037 373.703 595.364C370.293 600.815 363.364 601.995 357.531 598.748C350.252 594.702 350.377 587.818 352.88 580.777C353.448 579.173 354.61 577.769 355.111 576.175C357.467 568.652 372.35 560.437 358.752 553.8C346.47 547.81 342.75 562.716 337.485 570.897C333.462 577.153 334.384 583.914 336.533 590.702C338.64 597.368 340.423 604.648 333.415 609.315C326.829 613.712 320.148 610.343 314.202 606.775C306.928 602.414 301.064 595.688 292.238 593.972C270.179 578.918 245.961 566.987 226.214 548.547C221.421 543.072 216.585 537.62 212.779 531.379C193.787 511.725 169.252 503.117 143.677 496.573C125.272 490.127 115.493 471.635 96.0477 464.883C81.7764 459.915 87.5065 443.491 95.3374 430.049C75.1657 431.243 58.5476 428.637 43.3072 440.943C26.272 454.693 27.5481 428.738 16.6868 426.742C14.7481 436.412 24.6501 450.994 9.84495 454.941C-1.37572 457.935 -1.88827 442.42 -9.31121 437.074C0.292473 449.022 6.55342 462.284 6.22503 477.977C6.11933 483.525 4.69088 488.746 -1.10114 490.153C-8.04849 491.844 -10.124 485.648 -10.9256 480.954C-13.8187 464.041 -25.4445 454.157 -38.3319 445.206C-51.4934 436.056 -52.6281 415.631 -73.0469 411.715C-79.71 410.44 -84.5105 394.728 -73.236 385.674C-71.1042 384.77 -69.8109 381.258 -66.6115 383.477C-71.1692 380.545 -72.2492 386.462 -75.4844 386.963C-83.588 390.88 -88.8586 397.18 -92.4921 405.411C-95.6106 412.497 -100.628 416.671 -108.571 410.788C-111.845 389.098 -109.118 369.969 -86.7755 359.141C-39.5536 352.467 -1.34867 377.312 35.9943 396.683C47.0229 391.262 29.0264 369.326 52.1647 375.751C54.4565 376.387 57.4076 377.799 54.974 374.426C45.9445 361.909 57.6103 341.645 37.3955 332.673C26.5882 327.881 31.6123 314.118 29.9421 304.275C29.3586 300.728 29.0623 297.139 29.0561 293.545C28.9948 291.14 29.1322 288.752 29.2845 286.362C26.7318 264.146 29.0057 242.975 42.6374 224.234C46.3841 219.434 50.6026 215.053 54.7021 210.559C61.7686 203.99 67.4131 195.118 78.7685 195.313C82.0882 196.2 85.1425 197.881 87.6681 200.21C102.827 213.213 106.497 204.608 106.814 189.966C106.837 183.951 106.402 177.942 105.514 171.992C93.9819 150.659 98.9511 124.225 83.9537 103.783C79.2424 97.3523 84.5303 93.2901 90.5214 90.1706C108.827 80.6602 139.54 90.6357 149.232 110.349C153.152 118.307 155.963 127.668 166.736 124.953C177.456 122.255 180.112 112.42 179.332 102.445C178.475 91.4621 174.944 80.4583 181.524 70.0295C220.789 68.1587 259.713 72.4613 298.796 75.1899C327.685 77.1935 356.932 74.1664 386.009 73.2767C388.512 73.204 392.784 72.9393 393.213 71.707C402.048 46.3658 424.043 60.1635 439.821 55.7588C441.475 55.9064 443.14 55.9016 444.794 55.7447C449.203 60.2972 456.064 55.9209 460.581 60.0807C526.585 67.5394 590.968 85.7034 657.484 89.7324C661.912 89.9954 665.911 90.8765 669.037 94.2478Z" fill="#E7F7FF"/>
<path d="M1289.4 547.8C1288.97 543.436 1288.04 539.089 1284.55 536.204C1275.6 528.824 1271.46 521.003 1278.54 509.636C1283.54 501.609 1281.73 497.735 1271.23 493.319C1254.5 486.274 1251.07 467.453 1244.88 451.889C1243.13 447.472 1246.1 441.26 1240.08 438.607C1231.9 437.309 1236.04 450.462 1227.32 448.627C1220.29 442.572 1225.81 431.947 1219.31 425.382C1211.9 417.903 1212.57 412.792 1223.56 409.064C1231.49 406.365 1232.68 399.787 1228.35 392.277C1221.04 379.586 1217.11 365.52 1213.17 351.568C1189.63 357.755 1189.63 357.755 1204.4 381.251C1197.69 387.106 1182.93 385.727 1184.54 400.469C1184.9 403.757 1180.47 405.044 1176.55 404.305C1162.97 401.743 1151.92 396.667 1151.23 380.516C1156.02 374.377 1164.05 376.7 1169.88 372.642C1182.64 363.793 1187.67 346.68 1179.41 333.313C1173.56 323.805 1167.04 314.726 1159.9 306.145C1152.31 297.081 1140.07 295.737 1129.05 303.654C1123.55 307.601 1120.69 307.51 1115.98 303.669C1107.7 296.907 1103.52 287.449 1097.94 278.796C1091.09 268.16 1086.91 253.158 1067.44 260.908C1063.06 262.646 1049.95 258.604 1046.58 254.437C1032.68 237.163 1023.56 252.685 1012.99 257.414C1010.04 258.736 1008.11 262.216 1005.48 264.41C995.806 272.464 987.355 274.504 976.513 264.153C959.683 248.1 958.308 248.424 942.981 266.166C935.735 274.553 926.76 277.96 917.433 282.377C907.573 287.034 901.806 283.93 894.867 277.189C879.082 261.855 868.572 264.462 860.859 286.249C856.832 297.616 846.766 303.14 840.048 311.76C834.778 318.525 809.863 309.954 808.574 298.834C806.248 278.763 797.503 287.165 788.378 291.064C785.293 292.373 782.223 294.723 778.701 292.66C775.599 290.849 773.305 287.99 773.77 284.31C774.056 282.06 776.467 278.024 776.921 278.152C794.23 283.296 805.259 269.817 819.019 264.529C823.625 262.753 829.153 263.374 834.308 262.893C838.264 253.433 818.758 249.257 829.656 238.365C835.743 232.272 835.364 218.05 854.175 228.664C829.44 198.913 827.902 198.198 798.566 200.205C795.335 191.232 804.124 184.489 803.803 176.64C799.132 168.32 787.4 182.15 784.776 169.851C783.773 165.172 778.918 160.285 783.974 155.538C789.702 150.143 792.928 155.018 796.113 159.214C800.401 164.852 805.294 164.52 812.01 162.952C827.487 159.34 842.17 150.555 859.511 156.97C867.474 159.912 872.671 150.207 879.182 146.463C886.566 142.222 893.169 133.954 902.178 138.072C916.66 144.685 927.023 136.79 938.021 130.503C946.817 125.472 955.15 119.621 963.685 114.135C968.101 110.385 1034.61 80.8051 1040.51 79.9664C1069.48 88.6084 1098.01 81.2264 1126.66 77.6481C1131.95 76.9908 1137.13 75.8652 1140.39 71.566C1159.29 46.6691 1187.62 46.2059 1214.62 43.5656C1235.06 41.5702 1255.73 42.034 1276.31 41.404C1279.54 43.9186 1284.29 42.8461 1287.24 46.0224L1287.17 45.9949C1311.83 59.3959 1338.1 64.096 1366.06 61.9442C1378.53 60.9892 1391.73 58.8282 1403.04 67.4192C1411.23 78.8758 1410.67 91.4771 1407.86 104.341C1399.57 120.899 1383.97 112.979 1371.32 114.829C1376.8 158.147 1370.21 161.752 1312.46 144.37C1334.08 172.881 1308.49 186.185 1296.14 202.695C1288.15 213.371 1276.06 210.755 1266.7 201.617C1259.31 194.389 1252.69 186.418 1241.59 184.553C1234.2 183.311 1227.02 173.746 1220.25 179.246C1212.08 185.884 1215.28 197.324 1217.75 206.066C1222.12 221.481 1226.15 235.894 1246.58 241.265C1277.5 249.39 1291.94 285.571 1276.55 313.824C1266.29 332.638 1272.7 334.637 1290.14 336.312C1316.01 338.794 1344.85 384.562 1338.39 408.315C1336.14 416.612 1346.1 418.524 1350.6 423.051C1379.62 452.263 1413.32 476.398 1441.61 506.51C1442.78 508.9 1443.63 511.434 1444.14 514.045C1447.85 537.221 1435.78 548.322 1414.5 549.662C1388.88 551.287 1363.42 554.732 1338.29 559.972C1320.56 563.639 1304.99 554.794 1289.4 547.8Z" fill="#E7F7FF"/>
<path d="M1437.88 506.452C1427 496.131 1409.77 492.852 1404.51 476.128C1403.92 474.26 1400.55 471.966 1398.55 472.042C1381.9 472.655 1373.16 466.33 1370.99 448.468C1370.09 441.059 1360.76 433.739 1352.35 432.091C1339.23 429.519 1337.59 411.322 1322.53 411.931C1320.93 411.995 1321.26 405.601 1324.59 403.618C1328.94 401.036 1334.55 408.137 1339.73 400.795C1332.83 393.679 1321.45 388.092 1326.65 374.094C1328.45 369.256 1322.04 365.406 1317.71 362.705C1312.65 359.539 1306.11 357.71 1304.29 351.401C1301.01 340 1293.53 338.761 1284.42 342.828C1272.27 348.241 1267.07 340.115 1261.8 332.142C1258.78 327.572 1258.95 324.733 1264.37 319.943C1278.17 307.756 1282.41 291.176 1273.59 274.44C1265.34 258.774 1256.7 241.293 1233.35 246.125C1229.65 246.894 1225.89 246.493 1224.47 243.047C1215.7 221.907 1205.52 201.045 1209.46 176.958C1211.02 167.49 1217.68 166.106 1224.71 168.342C1235.36 171.724 1242.41 185.292 1257.03 179.213C1258.23 178.714 1263.41 190.216 1268.03 194.882C1273.02 199.917 1278.03 209.292 1286.94 203.055C1292.43 199.215 1304.36 197.029 1295.96 184.178C1292.37 178.676 1299.71 175.319 1305.11 176.386C1321.52 179.634 1318.14 171.208 1313.75 162.306C1309.61 153.928 1304.79 145.849 1304.59 136.121C1309.82 130.937 1315 133.837 1318.07 137.561C1326.57 147.872 1341.19 140.543 1350.98 150.947C1356.71 157.03 1367.01 146.759 1368.15 135.166C1369.23 124.199 1359.56 116.586 1360.11 103.36C1374.07 108.858 1389.18 110.789 1404.07 108.98C1414.62 115.046 1423.02 106.267 1432.35 104.828C1434.93 104.638 1440.43 108.193 1437.62 100.623C1440.01 87.4919 1451.09 80.7754 1458.71 71.5362C1473.77 79.1657 1462.88 90.9408 1462.87 98.7396C1491.23 117.274 1517.88 133.568 1525.09 169.736C1530.11 194.913 1545.71 216.553 1557.4 239.365C1559.72 243.885 1563.75 247.528 1564.2 252.996C1557.15 272.497 1558.48 294.842 1544.23 311.898C1536.21 310.641 1532.75 315.834 1529.98 321.979C1529.17 322.759 1528.16 323.281 1527.05 323.48C1525.95 323.679 1524.82 323.545 1523.79 323.096C1519.71 321.281 1513.81 316.104 1513.82 325.706C1513.84 335.736 1516.64 345.745 1514.12 355.871C1510.95 366.347 1513.39 379.096 1501.91 386.177C1487.22 387.026 1492.87 369.197 1481.69 364.912C1469.15 384.193 1457.62 403.425 1462.13 428.354C1463.8 437.542 1463.41 447.076 1463.23 456.473C1463.12 461.625 1462.26 470.833 1460.01 470.689C1429.43 468.775 1450.18 497.85 1437.88 506.452Z" fill="#E7F7FF"/>
<path d="M252.276 641.165C237.082 638.323 222.035 637.099 207.133 643.074C201.447 645.345 196.316 648.023 191.795 652.214C165.998 676.123 130.64 664.92 122.421 630.326C98.399 628.555 74.4374 627.864 50.8543 634.295C48.8774 632.9 47.3632 630.945 46.5068 628.682C45.8907 610.014 57.498 600.011 73.4139 597.138C95.7247 593.104 95.2156 575.947 99.5919 560.425C81.4947 568.872 65.1312 578.898 46.7904 584.819C44.356 585.447 41.8503 585.758 39.3361 585.742C36.799 585.54 34.3065 584.96 31.9411 584.021C26.359 580.969 21.4302 576.851 17.4343 571.901C8.69933 544.751 -5.38233 523.896 -35.3122 514.816C-47.9494 510.978 -60.3824 499.867 -60.6035 482.708C-57.2287 476.83 -49.8108 474.208 -48.23 466.712C-46.8663 460.214 -46.4913 451.99 -36.7522 452.586C-28.1198 453.114 -23.2944 459.316 -19.5502 466.408C-17.9429 469.46 -20.0106 465.655 -18.5833 468.796C-4.47975 499.84 -4.47974 499.84 16.693 471.574C31.5886 507.839 66.5334 499.843 92.9468 502.68C133.695 507.064 134.463 502.886 147.649 542.355C150.686 552.972 143.479 560.376 139.419 568.774C129.414 581.212 126.329 594.839 132.373 610.031C134.088 619.841 137.37 627.045 149.178 620.344C155.114 616.976 161.101 613.696 167.102 610.447C186.319 600.048 204.997 589.5 222.654 613.893C226.095 618.647 234.753 619.692 240.093 624.085C242.884 626.127 245.609 628.27 248.401 630.321C250.278 631.647 251.951 633.239 253.368 635.048C253.857 636.052 254.015 637.185 253.819 638.284C253.623 639.383 253.083 640.392 252.276 641.165Z" fill="#E7F7FF"/>
<path d="M-145.403 220.261C-146.681 210.733 -144.59 201.71 -141.592 192.74C-139.986 187.947 -136.577 181.117 -138.505 178.253C-145.768 167.449 -146.425 159.132 -135.01 151.047C-132.446 149.229 -132.516 144.624 -134.422 141.525C-136.344 138.401 -140.014 136.701 -143.196 138.465C-161.373 148.546 -167.126 134.338 -173.845 122.783C-175.936 119.186 -176.593 114.778 -180.649 112.481C-176.495 105.603 -176.254 98.0391 -175.693 90.2287C-174.391 72.186 -171.807 70.7172 -152.917 74.0533C-150.38 74.5055 -147.85 74.976 -145.32 75.4475C-122.126 86.8516 -121.887 91.9224 -143.214 117.75C-125.769 106.995 -104.582 121.957 -86.9798 107.859C-82.6532 104.395 -76.2114 111.083 -72.3405 115.709C-65.7826 123.545 -58.7525 130.725 -48.5236 135.538C-46.2708 127.439 -44.9865 118.673 -35.2341 116.168C-5.86209 112.58 -0.193559 116.783 4.12569 145.284C-3.85651 155.693 -23.1322 155.713 -21.9444 175.055C-21.3368 185.002 -16.3841 183.535 -10.2234 182.23C-4.44232 180.055 -0.148948 175.441 5.30991 173.003C12.426 169.821 20.7722 160.664 26.8217 173.202C31.6662 183.235 26.8628 191.761 17.3523 196.832C9.02372 201.267 -0.850193 202.047 -8.9166 207.254C-28.8127 213.489 -49.8004 212.236 -64.4342 198.887C-83.0173 181.934 -97.7551 193.025 -104.951 204.793C-115.976 222.802 -129.78 220.996 -145.403 220.261Z" fill="#E7F7FF"/>
<path d="M1040.51 79.9625C1038.88 80.3547 1037.27 80.8373 1035.61 81.1164C1021.96 83.3952 1026.05 109.015 1004.31 103.043C990.549 99.2679 977.768 111.855 963.686 114.131C954.391 109.256 944.352 107.078 934.846 111.814C918.019 120.205 906.313 113.484 895.877 100.803C909.877 93.8844 925.388 92.3588 940.351 89.8241C951.564 87.9229 962.425 88.1295 969.038 76.7013C971.321 72.7524 976.335 71.2974 980.433 72.1741C1000.27 76.4224 1021.07 73.0129 1040.51 79.9625Z" fill="#E7F7FF"/>
<path d="M1402.26 67.9666C1374.97 66.6299 1347.82 72.9206 1320.24 67.1922C1305.52 64.1282 1294.78 58.4351 1287.18 45.9896C1317.18 38.3279 1347.27 35.5372 1377.91 42.6886C1385.58 44.4843 1391.99 54.115 1401.31 47.04C1407.02 52.1333 1407.18 58.289 1404.78 64.9616C1403.95 65.965 1403.1 66.9617 1402.26 67.9666Z" fill="#E7F7FF"/>
<path d="M1434.05 107.63C1431.74 108.64 1428.82 109.078 1427.22 110.763C1423.04 115.183 1424.34 125.876 1414.05 123.06C1407.56 121.287 1409.73 112.092 1404.07 108.985C1403.47 95.3119 1402.87 81.6393 1402.25 67.967L1401.9 67.5794C1409.78 59.9306 1415.16 49.2777 1427.2 46.6545C1428.42 46.8765 1429.67 46.9882 1430.92 46.9883C1433.97 47.3615 1435.84 49.1924 1436.98 51.9089C1444.23 58.4566 1451.47 65.0014 1458.72 71.5431C1459.2 77.6724 1459.39 83.3932 1452.96 87.3355C1447.09 90.9298 1441.92 95.5969 1438.78 102.013C1438.81 105.232 1437.21 107.093 1434.05 107.63Z" fill="#E7F7FF"/>
<path d="M796.982 88.9734C777.187 100.687 752.638 91.5402 732.432 104.114C726.32 107.915 715.953 103.518 709.494 96.9667C721.341 97.0997 732.123 93.5543 743.463 90.1483C760.506 85.0192 778.94 72.7207 796.982 88.9734Z" fill="#E7F7FF"/>
<path d="M1427.2 46.6511C1420.13 55.2687 1415.43 66.7589 1401.9 67.576C1401.7 60.7285 1401.51 53.8835 1401.31 47.041C1413.47 33.0189 1414.51 32.9974 1427.2 46.6511Z" fill="#E7F7FF"/>
<path d="M709.54 96.9963C699.075 96.1216 687.806 101.859 678.267 93.2478C688.763 93.9234 699.988 88.5459 709.54 96.9963Z" fill="#E7F7FF"/>
<path d="M459.583 59.0811C453.842 59.3662 447.941 60.2581 443.795 54.7451C449.483 54.6369 455.518 53.2752 459.583 59.0811Z" fill="#E7F7FF"/>
<path d="M1287.24 46.0173C1282.95 46.0388 1279.13 44.9304 1276.33 41.3986C1280.84 40.8714 1284.82 41.6003 1287.24 46.0173Z" fill="#E7F7FF"/>
<path d="M1436.98 51.9055C1434.96 50.2629 1432.95 48.6271 1430.92 46.9849C1434.22 47.044 1436.22 48.7186 1436.98 51.9055Z" fill="#E7F7FF"/>
<path d="M-34.9384 123.155C-38.3409 120.821 -41.7432 118.492 -45.1304 116.139C-51.4145 111.782 -64.0912 121.465 -65.6042 108.054C-66.8842 96.7287 -68.132 84.4377 -57.6489 75.5515C-55.7625 73.954 -53.9163 72.32 -50.2056 69.0893C-58.098 64.9028 -68.1179 70.425 -73.2752 62.7689C-71.5178 62.494 -69.7581 62.2166 -67.9962 61.9368C14.9166 61.7666 97.7866 63.2302 180.532 69.0332C184.998 80.0192 182.629 91.9449 185.891 103.514C189.29 115.566 179.264 126.093 170.469 133.772C163.685 139.711 142.149 127.171 142.1 115.353C142.048 103.42 137.515 101.218 128.2 100.523C126.49 100.249 124.932 99.3781 123.803 98.0648C115.213 88.3125 106.139 86.4899 95.3465 94.9609C93.3159 96.5553 88.762 93.1051 86.153 97.3164C86.0453 105.322 93.1875 102.226 97.244 103.668C102.056 105.388 105.695 110.098 103.095 113.066C89.2553 128.882 103.597 141.524 106.816 155.335C107.971 160.26 109.98 164.995 111.603 169.813C94.9194 172.956 88.8845 160.465 81.7319 149.588C76.7932 142.091 70.2649 136.616 61.5782 133.911C44.3995 129.235 35.0441 141.673 24.232 150.962C15.9438 156.12 7.97207 159.234 2.45538 147.43C-4.51201 137.472 -2.52137 120.377 -20.9041 119.36C-26.465 119.058 -30.4036 121.435 -34.9384 123.155Z" fill="#E7F7FF"/>
<path d="M463.636 618.041C455.525 607.389 448.947 595.296 431.264 599.871C427.452 600.858 421.234 592.485 416.118 588.422C413.856 581.685 402.272 577.78 408.538 568.783C413.657 561.437 421.332 557.695 430.923 562.31C440.995 567.151 445.166 562.336 445.917 552.47C446.179 549.079 447.044 545.729 447.298 542.337C449.129 518.092 448.264 517.098 423.33 515.356C429.833 501.125 449.904 493.435 443.166 473.945C448.836 472.086 455.999 471.805 459.914 468.095C475.262 453.554 493.053 461.602 509.319 462.617C526.905 463.722 537.99 493.62 525.576 506.236C515.171 516.822 523.209 519.746 530.058 521.769C540.032 524.72 550.72 525.226 566.868 527.646C550.372 536.826 542.461 545.569 542.375 560.72C542.331 569.252 529.473 565.704 523.679 571.421C515.558 579.443 513.826 585.856 521.804 592.118C525.586 595.086 531.273 595.887 532.779 591.333C536.169 581.146 541.898 579.041 552.026 580.05C556.779 580.523 558.034 572.638 560.311 568.157C564.89 569.078 573.015 574.467 573.403 568.398C574.483 551.59 591.978 547.062 596.408 532.626C600.325 519.877 613.908 525.403 623.402 525.329C632.702 525.262 636.368 532.392 636.845 541.012C637.32 549.563 637.513 558.125 637.973 566.678C638.235 571.77 638.019 577.568 644.28 579.306C649.078 580.63 652.054 577.312 654.494 573.465C655.844 571.338 657.508 569.048 659.607 567.885C661.579 566.795 666.161 566.277 666.442 566.906C670.708 576.483 679.738 587.945 677.299 595.726C670.531 617.334 670.615 619.959 693.382 620.425C718.762 620.953 722.607 624.177 728.729 650.078C721.877 650.379 715.023 650.686 708.167 650.999C677.14 657.562 645.489 654.109 614.23 656.871C604.23 657.755 593.71 654.864 584.274 660.521C569.932 673.141 564.45 656.448 553.861 653.095C575.322 633.912 575.288 632.322 553.191 613.103C545.901 637.631 528.108 640.852 507.035 634.995C499.864 633 494.063 634.726 487.308 636.257C473.6 639.367 468.847 635.002 463.636 618.041Z" fill="#E7F7FF"/>
<path d="M1108.62 559.275C1064.63 564.525 1021.54 556.866 978.142 551.41C941.683 546.838 905.138 543.716 867.929 547.312C852.324 548.826 835.169 540.493 819.688 534.242C813.562 531.776 809.332 530.604 803.24 532.587C787.554 537.683 772.654 531.313 757.838 527.757C751.371 526.201 745.477 520.368 745.671 512.631C745.885 504.169 755.127 498.849 759.703 500.547C772.458 505.28 778.227 485.169 791.296 493.639C794.608 495.778 795.623 489.969 795.493 486.707C795.266 480.644 795.275 474.17 787.258 472.745C767.387 469.229 751.02 476.615 736.376 489.311C729.484 495.288 725.484 505.366 712.515 505.189C710.583 497.207 718.505 494.005 720.905 488.574C722.379 485.232 722.977 481.852 720.963 478.823C718.383 474.946 715.232 477.204 711.985 478.422C692.634 485.665 684.001 478.58 682.623 454.462C689.55 456.946 690.061 469.381 696.587 467.819C708.414 464.983 720.673 465.97 732.063 462.402C738.158 460.488 736.859 454.503 735.142 449.191C732.511 441.035 723.865 436.197 722.654 423.917C743.143 434.394 761.161 451.296 786.893 438.589C779.358 430.719 767.602 435.35 761.621 427.913C758.205 423.668 749.486 420.661 755.489 413.748C759.851 408.721 764.719 412.884 767.891 417.533C769.874 420.449 772.255 423.198 775.985 423.029C796.106 422.134 804.443 435.322 809.81 451.551C812.885 460.827 815.313 468.746 827.105 459.871C831.669 456.437 837.089 460.047 841.993 460.896C852.996 462.811 855.548 469.796 851.717 479.56C850.172 483.506 847.286 486.973 846.016 490.978C843.965 497.451 848.86 500.786 853.695 502.125C860.54 504.026 856.807 488.574 865.375 493.574C869.185 495.801 870.099 502.518 873.42 506.209C876.854 510.019 881.553 509.214 884.184 504.774C888.205 498 900.279 501.347 900.977 491.048C901.067 489.704 898.579 486.966 898.512 487.006C887.53 493.308 882.056 468.154 869.645 481.932C868.091 483.662 864.393 482.032 863.863 479.294C863.434 477.04 863.731 473.358 865.178 472.264C870.633 468.11 876.46 464.469 882.586 461.389C888.335 458.537 901.852 461.087 889.77 448.183C887.642 445.912 891.122 441.768 894.372 440.192C898.184 438.337 900.819 440.529 902.921 443.548C903.409 444.254 904.171 444.989 904.224 445.749C906.14 470.243 924.827 474.059 943.602 477.777C948.779 478.807 950.002 482.846 950.839 487.195L950.84 487.203C955.597 490.807 960.625 494.111 965.052 498.084C970.549 503.018 975.312 507.466 981.951 499.35C987.815 492.183 986.073 486.974 979.108 482.321C976.285 480.432 973.218 478.765 974.135 474.071C1000.64 474.011 996.671 495.361 999.228 511.821C1009.26 507.425 1013.82 502.277 1009.35 491.482C1006.18 483.532 1006.29 474.654 1009.64 466.78C1033.35 473.299 1036.62 475.652 1032.32 495.711C1028.58 513.207 1038 520.547 1048.76 529.91C1060.79 506.762 1060.79 506.762 1045.67 489.927C1048.45 481.901 1057.67 482.69 1062.62 476.973C1066.05 488.555 1069.19 499.104 1072.31 509.65C1086.06 507.995 1089.48 483.305 1108.36 493.565C1118.78 499.225 1117.9 508.471 1116.06 519.625C1113.79 516.403 1112.33 514.447 1111 512.414C1107.22 506.682 1102.24 507.573 1097.73 510.769C1092.95 514.167 1091.46 519.154 1095.65 524.027C1104.39 534.231 1109.64 545.562 1108.62 559.28L1108.62 559.275Z" fill="#E7F7FF"/>
<path d="M-145.403 220.262C-137.786 216.82 -132.266 204.814 -121.367 214.607C-119.456 216.323 -115.97 215.827 -116.272 212.616C-118.665 187.787 -89.549 194.749 -82.5368 179.149C-81.3501 176.507 -75.304 177.783 -73.7139 180.774C-59.8378 206.838 -34.355 202.701 -11.403 205.209C0.829414 214.134 10.7035 229.689 29.7751 216.021C35.0723 212.226 43.1949 216.015 46.2435 223.921C34.6173 243.233 32.558 264.591 32.8821 286.461C31.5979 287.634 31.1743 288.791 31.6257 289.94C32.077 291.09 32.5164 291.668 32.95 291.653C33.1011 295.091 33.2495 298.528 33.3953 301.965C36.7213 321.673 17.545 326.326 7.68128 331.708C-3.02748 337.552 -4.05361 319.797 -10.1326 310.414C-12.8071 316.471 -18.6408 319.514 -24.2896 316.987C-51.5891 304.729 -58.8312 326.699 -66.4777 343.294C-70.6681 352.389 -74.1975 359.452 -83.5122 362.946C-96.3778 363.755 -99.46 374.045 -102.334 383.545C-104.968 392.259 -105.894 401.483 -107.575 410.476C-87.674 431.554 -67.2752 452.286 -58.7853 481.234C-50.5429 497.579 -39.0877 510.872 -20.7126 515.353C1.84954 520.864 13.8769 534.614 16.8148 557.375C17.4491 562.234 20.2828 566.803 22.1003 571.516C20.7759 583.276 14.0065 580.71 6.91774 577.28C5.04725 566.058 1.92803 557.25 -12.9705 561.785C-17.325 563.111 -23.1544 558.941 -27.926 559.696C-38.591 561.364 -50.8281 561.87 -50.2397 578.208C-49.6019 595.756 -65.6306 596.295 -75.2935 603.069C-77.398 601.269 -79.7791 599.826 -79.5911 599.313C-72.5933 580.133 -84.1088 571.657 -98.8758 564.299C-106.596 560.45 -113.458 554.608 -117.06 546.581C-118.886 542.509 -121.412 536.543 -114.55 533.408C-111.431 531.989 -103.9 534.384 -107.668 527.151C-109.677 523.283 -117.935 523.642 -118.985 526.306C-122.328 534.801 -144.451 531.387 -133.845 549.325C-133.368 550.13 -146.32 558.886 -153.711 564.461C-164.572 551.369 -157.932 536.163 -159.833 521.439C-174.257 523.84 -172.244 534.106 -172.229 543.008C-172.211 557.806 -180.512 548.134 -185.675 547.706C-186.098 540.858 -185.499 533.816 -188.888 527.491C-197.33 511.78 -185.636 501.428 -178.385 490.428C-174.207 484.08 -166.7 483.728 -159.848 487.364C-157.637 488.535 -156.155 491.035 -154 492.345C-129.914 507.005 -116.737 500.758 -116.323 472.769C-116.107 458.047 -109.547 444.215 -112.131 429.377C-113.134 423.594 -110.743 415.094 -116.809 412.907C-137.553 405.44 -136.297 381.345 -151.206 369.764C-155.285 366.595 -154.134 362.487 -151.428 358.424C-142.188 344.536 -132.685 330.989 -129.703 313.733C-128.206 305.078 -113.563 304.66 -107.208 312.807C-104.871 315.802 -106.445 321.098 -102.482 323.799C-86.6613 307.319 -86.6693 307.32 -99.0247 293.114C-102.127 289.552 -101.507 285.074 -101.99 280.864C-92.5096 278.659 -79.713 285.785 -75.4382 269.196C-73.5077 261.687 -66.0813 262.366 -61.7457 268.891C-54.2917 280.122 -48.9141 273.194 -44.4688 266.808C-37.5954 256.925 -46.9729 254.687 -52.8572 253.69C-65.3338 251.584 -62.4357 239.204 -69.3447 229.827C-75.044 256.295 -91.1405 270.972 -112.216 281.132C-117.777 277.839 -120.862 270.901 -128.897 271.092C-135.03 271.238 -139.481 266.824 -135.203 261.526C-124.861 248.681 -131.161 240.197 -140.774 231.646C-144.079 228.7 -144.992 224.52 -145.403 220.262Z" fill="#E7F7FF"/>
<path d="M-58.7797 481.233C-59.5389 480.86 -60.6488 480.699 -61.0204 480.086C-75.528 456.207 -97.0013 436.982 -107.569 410.475C-103.312 409.587 -98.1131 407.989 -98.544 403.313C-100.498 382.197 -86.2734 383.209 -72.432 383.303L-72.4322 383.295C-79.2768 394.031 -73.2036 402.789 -68.3816 411.752C-59.5964 413.585 -54.3353 405.503 -46.6944 404.679C-45.9587 405.894 -44.3305 407.803 -44.6368 408.193C-53.6816 419.82 -49.5659 428.808 -39.2376 436.687C-37.8678 437.728 -36.7442 439.166 -35.2685 439.976C-17.2392 449.801 -4.87689 463.549 -4.55511 485.838C6.02206 457.539 -13.0428 440.964 -30.4796 422.497C-15.3742 423.325 -15.3742 423.325 8.66576 451.147C17.7789 437.561 2.99403 426.867 5.67869 412.851C18.1179 419.43 35.3346 418.682 32.0891 443.213C54.4306 413.733 81.067 422.937 106.203 424.531C109.648 435.049 101.268 435.648 97.0655 438.522C89.4865 443.708 90.1317 449.305 93.9159 456.225C97.7007 463.16 101.361 464.366 107.753 458.551C112.934 453.846 118.795 457.014 118.549 463.024C118.008 476.272 122.542 482.008 136.246 481.408C145.599 480.997 142.551 489.649 143.821 494.928C152.81 504.552 154.991 516.373 154.816 528.976C153.663 534.743 150.997 539.312 145.024 541.238C136.97 545.26 133.308 542.905 136.155 534.169C138.196 527.896 139.733 521.531 132.921 518.609C125.529 515.44 120.093 501.808 116.387 505.372C107.59 513.829 95.2589 502.495 88.4662 513.197C86.8646 515.729 81.1535 517.733 80.665 513.211C78.7609 495.807 68.4086 503.115 60.4359 506.03C52.8782 508.801 47.303 507.031 41.6428 502.211C39.1232 500.067 34.5057 496.543 33.2319 497.357C15.1849 508.98 20.933 492.815 19.1488 485.596C18.5452 483.157 18.0934 480.683 17.2636 476.782C15.4286 480.047 14.1041 482.041 13.1365 484.2C8.98893 493.431 2.84205 501.011 -8.06206 499.337C-19.4791 497.582 -21.5943 487.427 -22.3711 477.873C-23.2954 466.481 -28.1407 459.05 -39.8201 455.918C-40.3272 480.328 -40.648 480.735 -58.7797 481.233Z" fill="#E7F7FF"/>
<path d="M-83.5033 362.946C-80.4059 358.968 -74.058 354.298 -74.7247 351.114C-79.2417 329.788 -59.504 323.056 -51.0952 309.722C-45.315 300.556 -37.0363 299.893 -29.9179 307.88C-19.5013 319.564 -15.0832 310.43 -10.0149 302.499C-2.20276 310.275 0.0486536 320.607 6.50134 330.892C9.02596 321.443 8.45956 310.473 22.7815 314.061C30.3194 315.952 30.3202 306.554 33.4013 301.967C34.7143 304.015 37.2401 306.105 37.1578 308.096C36.2669 329.832 36.155 329.921 56.5526 329.092C60.2261 328.94 63.5814 328.64 64.4753 333.057C65.2116 336.687 64.2794 340.74 60.0488 340.637C47.6469 340.349 48.7884 347.551 54.3821 353.045C65.0774 363.545 59.0567 373.444 55.7515 383.88C49.7039 385.158 52.1697 373.803 45.0789 376.652C44.4586 378.074 42.9517 379.857 43.3541 380.893C45.8233 387.25 49.0367 393.322 51.288 399.74C51.9739 401.703 51.0507 404.927 49.7201 406.718C49.3177 407.218 48.8164 407.629 48.2475 407.925C47.6787 408.222 47.0546 408.398 46.4146 408.442C45.7745 408.485 45.1323 408.396 44.5284 408.18C43.9244 407.964 43.3716 407.625 42.9049 407.185C30.2322 394.171 8.79525 398.365 -3.12813 381.73C-10.2394 371.803 -26.2714 372.449 -38.0139 368.085C-51.9047 362.928 -68.236 364.368 -83.5033 362.946Z" fill="#E7F7FF"/>
<path d="M46.2501 223.921C38.3812 219.748 30.9632 218.226 22.3892 223.507C18.0431 226.188 15.7883 235.087 7.96603 230.304C1.56832 226.385 -5.54263 223.207 -6.94473 214.277C-7.43735 211.093 -9.85763 208.217 -11.3983 205.21C-10.3377 192.431 -0.290316 194.889 7.67157 194.092C20.5136 192.812 25.4787 186.073 22.478 172.169C8.43838 173.384 1.658 188.862 -11.9899 189.637C-14.0121 159.525 -13.3502 158.634 13.6177 154.916C18.3958 154.262 21.152 151.278 22.7065 146.944C39.8624 125.589 44.0904 123.849 63.6253 130.088C93.2552 152.789 94.1326 169.78 64.5753 188.608C53.2594 195.821 58.7708 205.102 56.3947 213.365C54.4023 217.996 50.7978 221.746 46.2501 223.921Z" fill="#E7F7FF"/>
<path d="M85.0381 144.8C91.5776 155.592 99.7913 164.611 111.596 169.818C111.919 179.242 112.237 188.667 112.549 198.091C112.778 205.295 111.667 212.067 104.053 215.159C96.2286 218.343 91.0486 213.322 86.209 208.312C82.6922 204.658 79.5211 200.679 76.196 196.843C77.6238 179.242 84.3078 162.526 85.0381 144.8Z" fill="#E7F7FF"/>
<path d="M85.0383 144.8C86.4261 162.886 87.0171 180.839 76.1993 196.847C69.5904 202.346 62.9872 207.853 56.3895 213.367C55.1825 212.175 53.1894 211.157 52.8816 209.766C51.0865 201.581 49.6776 193.314 47.8127 183.338C60.3315 183.508 73.0416 185.855 78.0413 170.74C82.7251 156.601 79.3606 145.588 68.0403 136.376C66.1274 134.82 65.0687 132.207 63.6191 130.087C74.3177 129.806 79.8717 137.022 85.0383 144.8Z" fill="#E7F7FF"/>
<path d="M494.808 160.749C499.764 172.426 503.805 183.648 517.123 173.585C520.284 171.197 523.582 173.374 524.879 177.114C526.103 180.651 524.767 183.927 522.552 186.564C518.151 191.805 512.467 192.619 506.454 189.878C500.006 186.928 490.378 187.981 489.904 177.136C489.709 172.888 489.184 168.661 494.808 160.749Z" fill="#E7F7FF"/>
<path d="M32.9556 291.652C29.4157 289.964 29.4161 288.234 32.8877 286.46C32.9102 288.188 32.9331 289.924 32.9556 291.652Z" fill="#E7F7FF"/>
<path d="M1443.65 516.417L1438.31 511.372C1438.23 509.73 1438.09 508.09 1437.89 506.452C1439.42 492.567 1433.82 479.656 1430.47 465.603C1440.99 461.205 1446.41 474.724 1457.52 468.656C1457.1 456.63 1458.83 442.624 1455.63 429.857C1451.1 411.844 1455 396.972 1464.24 382.023C1468.26 375.491 1470.68 367.981 1474.05 361.017C1476.26 356.446 1478.4 350.849 1484.8 351.938C1490.6 352.923 1491.88 358.833 1494.02 363.351C1497.21 370.086 1492.78 379.298 1500.79 384.531C1481.93 392.099 1474.49 408.658 1473.3 426.404C1471.89 447.443 1465.83 468.196 1468.64 489.522C1473.13 500.804 1478.13 512.328 1464.93 521.32C1456.43 527.127 1448.98 525.713 1443.65 516.417Z" fill="#E7F7FF"/>
<path d="M1434.05 107.629C1435.63 105.761 1437.2 103.888 1438.78 102.01C1440.43 102.074 1442.1 102.046 1443.74 102.237C1447.7 102.669 1452.9 102.251 1452.32 108.173C1451.97 111.765 1448.01 112.482 1444.62 112.754C1440.08 113.107 1436.66 111.232 1434.05 107.629Z" fill="#E7F7FF"/>
<path d="M22.7073 146.946C27.5041 156.473 19.4689 157.547 14.3552 157.246C-0.0541211 156.387 -7.50261 160.304 -5.55381 176.587C-5.16549 179.849 -12.1355 183.947 -11.9891 189.639C-31.8086 191.522 -34.8 188.763 -29.1344 173.725C-28.5638 172.196 -26.8971 171.065 -26.3944 169.539C-19.5843 148.714 -19.6079 148.696 2.43829 147.447C9.32965 152.723 16.0662 151.725 22.7073 146.946Z" fill="#E7F7FF"/>
</svg>
